<svg width="28" height="28" viewBox="0 0 28 28" fill="none" xmlns="http://www.w3.org/2000/svg">
<path d="M13.9605 27.7086C21.5067 27.7086 27.624 21.5912 27.624 14.0451C27.624 6.49895 21.5067 0.381592 13.9605 0.381592C6.41436 0.381592 0.296997 6.49895 0.296997 14.0451C0.296997 21.5912 6.41436 27.7086 13.9605 27.7086Z" fill="#2DA5E1"/>
<path d="M11.8696 16.1412L11.6529 19.1889C11.9629 19.1889 12.0972 19.0557 12.2582 18.8958L13.7116 17.5068L16.7233 19.7123C17.2756 20.0201 17.6648 19.858 17.8137 19.2042L19.7906 9.94112L19.7911 9.94057C19.9663 9.12408 19.4959 8.80479 18.9577 9.0051L7.33796 13.4538C6.54493 13.7616 6.55694 14.2037 7.20315 14.404L10.1739 15.328L17.0742 11.0103C17.399 10.7953 17.6942 10.9143 17.4513 11.1293L11.8696 16.1412Z" fill="white"/>
</svg>
