<svg width="29" height="28" viewBox="0 0 29 28" fill="none" xmlns="http://www.w3.org/2000/svg">
<path d="M14.6334 27.7086C22.1795 27.7086 28.2969 21.5912 28.2969 14.0451C28.2969 6.49895 22.1795 0.381592 14.6334 0.381592C7.08721 0.381592 0.969849 6.49895 0.969849 14.0451C0.969849 21.5912 7.08721 27.7086 14.6334 27.7086Z" fill="#51CB5F"/>
<path d="M8.95372 19.1166L8.73774 20.2022L9.8261 20.0003L11.361 19.7156C12.3215 20.287 13.4395 20.6129 14.6345 20.6129C18.1788 20.6129 21.0595 17.7302 21.0595 14.1864C21.0595 10.6426 18.1788 7.76001 14.6345 7.76001H14.6317C11.0874 7.76001 8.20667 10.6419 8.20667 14.1864C8.20667 15.4713 8.58573 16.672 9.23998 17.6776L8.95372 19.1166Z" stroke="white" stroke-width="1.5"/>
<path d="M17.4586 16.9666L17.4105 17.0147C17.1704 17.2568 16.8486 17.4005 16.5081 17.4178H16.2705C15.0132 17.4178 14.0025 16.9485 12.9347 15.8837C11.8007 14.7497 11.3435 13.6819 11.4067 12.3102H11.4067C11.4239 11.9698 11.5677 11.648 11.8097 11.4078L11.8578 11.3597C12.1623 11.0539 12.5928 10.9089 13.0202 10.9681C13.4476 11.0272 13.8226 11.2836 14.0326 11.6605L14.0988 11.7808H14.0988C14.1823 11.933 14.2143 12.1082 14.1899 12.2802C14.1655 12.452 14.086 12.6114 13.9634 12.7344L13.5604 13.1374C13.7931 13.5853 14.0979 13.9918 14.4628 14.3406C14.8116 14.7055 15.218 15.0103 15.6659 15.243L16.066 14.8459C16.1918 14.7223 16.3548 14.6436 16.5299 14.6218C16.705 14.6001 16.8823 14.6365 17.0346 14.7256L17.1549 14.7918C17.5318 15.0019 17.7882 15.3768 17.8473 15.8042C17.9065 16.2317 17.7614 16.6621 17.4557 16.9665L17.4586 16.9666Z" fill="white"/>
</svg>
